<svg xmlns="http://www.w3.org/2000/svg" width="31.5" height="31.5"><path data-name="Icon awesome-line" d="M19.132 12.108v5a.222.222 0 01-.225.225h-.8a.233.233 0 01-.183-.091L15.63 14.15v2.967a.222.222 0 01-.225.225h-.8a.222.222 0 01-.225-.225v-5a.222.222 0 01.225-.225h.795a.212.212 0 01.183.1l2.292 3.094v-2.971a.222.222 0 01.225-.225h.8a.222.222 0 01.232.218zm-5.766-.225h-.8a.222.222 0 00-.225.225v5a.222.222 0 00.225.225h.8a.222.222 0 00.225-.225v-5a.227.227 0 00-.225-.225zm-1.934 4.191H9.246v-3.966a.222.222 0 00-.225-.225h-.8a.222.222 0 00-.225.225v5a.207.207 0 00.063.155.237.237 0 00.155.063h3.213a.222.222 0 00.225-.225v-.8a.225.225 0 00-.218-.225zm11.918-4.191h-3.213a.227.227 0 00-.225.225v5a.227.227 0 00.225.225h3.213a.222.222 0 00.225-.225v-.8a.222.222 0 00-.225-.225h-2.186v-.844h2.187a.222.222 0 00.225-.225v-.809a.222.222 0 00-.225-.225h-2.187v-.844h2.187a.222.222 0 00.225-.225v-.8a.236.236 0 00-.225-.225zm8.15-6.138v20.06a5.727 5.727 0 01-5.745 5.7H5.7a5.732 5.732 0 01-5.7-5.75V5.695a5.732 5.732 0 015.745-5.7H25.8a5.727 5.727 0 015.7 5.75zm-4.331 8.62c0-5.133-5.147-9.309-11.468-9.309S4.233 9.232 4.233 14.365c0 4.6 4.078 8.452 9.591 9.183 1.343.288 1.188.78.886 2.587-.049.288-.232 1.132.991.619a37.061 37.061 0 009.014-6.659 8.307 8.307 0 002.454-5.73z" fill="#df8686"/></svg>