<svg xmlns="http://www.w3.org/2000/svg" width="37.553" height="30.5"><path data-name="Icon awesome-twitter" d="M33.693 7.601c.024.334.024.667.024 1 0 10.175-7.744 21.9-21.9 21.9A21.75 21.75 0 010 27.045a15.922 15.922 0 001.859.1 15.414 15.414 0 009.555-3.288 7.71 7.71 0 01-7.2-5.338 9.706 9.706 0 001.454.119 8.14 8.14 0 002.032-.267 7.7 7.7 0 01-6.175-7.552v-.1a7.751 7.751 0 003.475.98A7.708 7.708 0 012.621 1.406a21.877 21.877 0 0015.87 8.054 8.688 8.688 0 01-.191-1.763A7.7 7.7 0 0131.62 2.43 15.153 15.153 0 0036.5.572a7.676 7.676 0 01-3.384 4.241 15.429 15.429 0 004.437-1.194 16.544 16.544 0 01-3.86 3.979z" fill="#df8686"/></svg>